<svg width="197" height="197" viewBox="0 0 197 197" fill="none" xmlns="http://www.w3.org/2000/svg">
<path d="M63.7141 29.7491C66.5838 28.0922 70.2534 29.0755 71.9102 31.9452L142.41 154.055C144.067 156.925 143.084 160.594 140.214 162.251L133.286 166.251C130.416 167.908 126.747 166.925 125.09 164.055L54.5897 41.9452C52.9329 39.0755 53.9161 35.4059 56.7859 33.7491L63.7141 29.7491Z" fill="#FF3D54"/>
<path d="M51.5993 66.7657C54.9474 64.8327 59.2285 65.9798 61.1615 69.3279L104.662 144.672C106.595 148.02 105.447 152.301 102.099 154.234L93.4391 159.234C90.091 161.167 85.8099 160.02 83.8769 156.672L40.3769 81.3279C38.4439 77.9798 39.591 73.6987 42.9391 71.7657L51.5993 66.7657Z" fill="#FF3D54"/>
<path d="M35.8865 103.55C39.2346 101.617 43.5157 102.764 45.4487 106.113L64.9487 139.887C66.8817 143.236 65.7346 147.517 62.3865 149.45L59.7884 150.95C56.4404 152.883 52.1593 151.736 50.2263 148.387L30.7263 114.613C28.7933 111.264 29.9404 106.983 33.2884 105.05L35.8865 103.55Z" fill="#FF3D54"/>
<path d="M137.212 45.0503C140.56 43.1173 144.841 44.2645 146.774 47.6125L166.274 81.3875C168.207 84.7355 167.06 89.0167 163.712 90.9497L161.113 92.4497C157.765 94.3827 153.484 93.2355 151.551 89.8875L132.051 56.1125C130.118 52.7645 131.265 48.4833 134.613 46.5503L137.212 45.0503Z" fill="#FF3D54"/>
<path d="M103.561 36.7657C106.909 34.8327 111.19 35.9798 113.123 39.3279L156.623 114.672C158.556 118.02 157.409 122.301 154.061 124.234L145.401 129.234C142.053 131.167 137.771 130.02 135.838 126.672L92.3384 51.3279C90.4054 47.9798 91.5526 43.6987 94.9006 41.7657L103.561 36.7657Z" fill="#FF3D54"/>
<path d="M197 98.5C197 152.9 152.9 197 98.5 197C44.1 197 0 152.9 0 98.5C0 44.1 44.1 0 98.5 0C152.9 0 197 44.1 197 98.5ZM16.9308 98.5C16.9308 143.549 53.4506 180.069 98.5 180.069C143.549 180.069 180.069 143.549 180.069 98.5C180.069 53.4506 143.549 16.9308 98.5 16.9308C53.4506 16.9308 16.9308 53.4506 16.9308 98.5Z" fill="#FF3D54"/>
</svg>
